<svg xmlns="http://www.w3.org/2000/svg" width="388" height="364" viewBox="0 0 388 364">
<rect width="100%" height="100%" fill="#e6f6e6"/>
<text x="6" y="20" font-family="sans-serif" font-size="15" font-weight="bold" fill="#1a7d1a">MATCHED — 3.4.4.6; 3.6.3.6; 4.4.4.4</text>
<polygon points="109.4,311.3 137.8,311.3 152.0,286.8 137.8,262.2 109.4,262.2 95.3,286.8" fill="#73c66b" stroke="#222" stroke-width="1"/>
<polygon points="137.8,311.3 109.4,311.3 123.6,335.9" fill="#e8746b" stroke="#222" stroke-width="1"/>
<polygon points="123.6,335.9 109.4,311.3 84.9,325.5 99.1,350.1" fill="#6ba3e8" stroke="#222" stroke-width="1"/>
<polygon points="109.4,311.3 95.3,286.8 70.7,301.0 84.9,325.5" fill="#6ba3e8" stroke="#222" stroke-width="1"/>
<polygon points="152.0,286.8 137.8,311.3 166.2,311.3" fill="#e8746b" stroke="#222" stroke-width="1"/>
<polygon points="152.0,286.8 166.2,311.3 190.7,297.2 176.5,272.6" fill="#6ba3e8" stroke="#222" stroke-width="1"/>
<polygon points="137.8,262.2 152.0,286.8 176.5,272.6 162.4,248.0" fill="#6ba3e8" stroke="#222" stroke-width="1"/>
<polygon points="201.1,258.4 229.4,258.4 243.6,233.9 229.4,209.3 201.1,209.3 186.9,233.9" fill="#73c66b" stroke="#222" stroke-width="1"/>
<polygon points="229.4,258.4 201.1,258.4 215.3,283.0" fill="#e8746b" stroke="#222" stroke-width="1"/>
<polygon points="215.3,283.0 201.1,258.4 176.5,272.6 190.7,297.2" fill="#6ba3e8" stroke="#222" stroke-width="1"/>
<polygon points="201.1,258.4 186.9,233.9 162.4,248.0 176.5,272.6" fill="#6ba3e8" stroke="#222" stroke-width="1"/>
<polygon points="243.6,233.9 229.4,258.4 257.8,258.4" fill="#e8746b" stroke="#222" stroke-width="1"/>
<polygon points="243.6,233.9 257.8,258.4 282.4,244.2 268.2,219.7" fill="#6ba3e8" stroke="#222" stroke-width="1"/>
<polygon points="229.4,209.3 243.6,233.9 268.2,219.7 254.0,195.1" fill="#6ba3e8" stroke="#222" stroke-width="1"/>
<polygon points="292.7,205.5 321.1,205.5 335.3,181.0 321.1,156.4 292.7,156.4 278.6,181.0" fill="#73c66b" stroke="#222" stroke-width="1"/>
<polygon points="321.1,205.5 292.7,205.5 306.9,230.1" fill="#e8746b" stroke="#222" stroke-width="1"/>
<polygon points="306.9,230.1 292.7,205.5 268.2,219.7 282.4,244.2" fill="#6ba3e8" stroke="#222" stroke-width="1"/>
<polygon points="292.7,205.5 278.6,181.0 254.0,195.1 268.2,219.7" fill="#6ba3e8" stroke="#222" stroke-width="1"/>
<polygon points="335.3,181.0 321.1,205.5 349.4,205.5" fill="#e8746b" stroke="#222" stroke-width="1"/>
<polygon points="335.3,181.0 349.4,205.5 374.0,191.3 359.8,166.8" fill="#6ba3e8" stroke="#222" stroke-width="1"/>
<polygon points="321.1,156.4 335.3,181.0 359.8,166.8 345.6,142.2" fill="#6ba3e8" stroke="#222" stroke-width="1"/>
<polygon points="81.1,262.2 109.4,262.2 123.6,237.7 109.4,213.1 81.1,213.1 66.9,237.7" fill="#73c66b" stroke="#222" stroke-width="1"/>
<polygon points="109.4,262.2 81.1,262.2 95.3,286.8" fill="#e8746b" stroke="#222" stroke-width="1"/>
<polygon points="95.3,286.8 81.1,262.2 56.5,276.4 70.7,301.0" fill="#6ba3e8" stroke="#222" stroke-width="1"/>
<polygon points="81.1,262.2 66.9,237.7 42.4,251.8 56.5,276.4" fill="#6ba3e8" stroke="#222" stroke-width="1"/>
<polygon points="123.6,237.7 109.4,262.2 137.8,262.2" fill="#e8746b" stroke="#222" stroke-width="1"/>
<polygon points="123.6,237.7 137.8,262.2 162.4,248.0 148.2,223.5" fill="#6ba3e8" stroke="#222" stroke-width="1"/>
<polygon points="109.4,213.1 123.6,237.7 148.2,223.5 134.0,198.9" fill="#6ba3e8" stroke="#222" stroke-width="1"/>
<polygon points="172.7,209.3 201.1,209.3 215.3,184.8 201.1,160.2 172.7,160.2 158.6,184.8" fill="#73c66b" stroke="#222" stroke-width="1"/>
<polygon points="201.1,209.3 172.7,209.3 186.9,233.9" fill="#e8746b" stroke="#222" stroke-width="1"/>
<polygon points="186.9,233.9 172.7,209.3 148.2,223.5 162.4,248.0" fill="#6ba3e8" stroke="#222" stroke-width="1"/>
<polygon points="172.7,209.3 158.6,184.8 134.0,198.9 148.2,223.5" fill="#6ba3e8" stroke="#222" stroke-width="1"/>
<polygon points="215.3,184.8 201.1,209.3 229.4,209.3" fill="#e8746b" stroke="#222" stroke-width="1"/>
<polygon points="215.3,184.8 229.4,209.3 254.0,195.1 239.8,170.6" fill="#6ba3e8" stroke="#222" stroke-width="1"/>
<polygon points="201.1,160.2 215.3,184.8 239.8,170.6 225.6,146.0" fill="#6ba3e8" stroke="#222" stroke-width="1"/>
<polygon points="264.4,156.4 292.7,156.4 306.9,131.8 292.7,107.3 264.4,107.3 250.2,131.8" fill="#73c66b" stroke="#222" stroke-width="1"/>
<polygon points="292.7,156.4 264.4,156.4 278.6,181.0" fill="#e8746b" stroke="#222" stroke-width="1"/>
<polygon points="278.6,181.0 264.4,156.4 239.8,170.6 254.0,195.1" fill="#6ba3e8" stroke="#222" stroke-width="1"/>
<polygon points="264.4,156.4 250.2,131.8 225.6,146.0 239.8,170.6" fill="#6ba3e8" stroke="#222" stroke-width="1"/>
<polygon points="306.9,131.8 292.7,156.4 321.1,156.4" fill="#e8746b" stroke="#222" stroke-width="1"/>
<polygon points="306.9,131.8 321.1,156.4 345.6,142.2 331.5,117.7" fill="#6ba3e8" stroke="#222" stroke-width="1"/>
<polygon points="292.7,107.3 306.9,131.8 331.5,117.7 317.3,93.1" fill="#6ba3e8" stroke="#222" stroke-width="1"/>
<polygon points="52.7,213.1 81.1,213.1 95.3,188.6 81.1,164.0 52.7,164.0 38.6,188.6" fill="#73c66b" stroke="#222" stroke-width="1"/>
<polygon points="81.1,213.1 52.7,213.1 66.9,237.7" fill="#e8746b" stroke="#222" stroke-width="1"/>
<polygon points="66.9,237.7 52.7,213.1 28.2,227.3 42.4,251.8" fill="#6ba3e8" stroke="#222" stroke-width="1"/>
<polygon points="52.7,213.1 38.6,188.6 14.0,202.7 28.2,227.3" fill="#6ba3e8" stroke="#222" stroke-width="1"/>
<polygon points="95.3,188.6 81.1,213.1 109.4,213.1" fill="#e8746b" stroke="#222" stroke-width="1"/>
<polygon points="95.3,188.6 109.4,213.1 134.0,198.9 119.8,174.4" fill="#6ba3e8" stroke="#222" stroke-width="1"/>
<polygon points="81.1,164.0 95.3,188.6 119.8,174.4 105.6,149.8" fill="#6ba3e8" stroke="#222" stroke-width="1"/>
<polygon points="144.4,160.2 172.7,160.2 186.9,135.6 172.7,111.1 144.4,111.1 130.2,135.6" fill="#73c66b" stroke="#222" stroke-width="1"/>
<polygon points="172.7,160.2 144.4,160.2 158.6,184.8" fill="#e8746b" stroke="#222" stroke-width="1"/>
<polygon points="158.6,184.8 144.4,160.2 119.8,174.4 134.0,198.9" fill="#6ba3e8" stroke="#222" stroke-width="1"/>
<polygon points="144.4,160.2 130.2,135.6 105.6,149.8 119.8,174.4" fill="#6ba3e8" stroke="#222" stroke-width="1"/>
<polygon points="186.9,135.6 172.7,160.2 201.1,160.2" fill="#e8746b" stroke="#222" stroke-width="1"/>
<polygon points="186.9,135.6 201.1,160.2 225.6,146.0 211.5,121.5" fill="#6ba3e8" stroke="#222" stroke-width="1"/>
<polygon points="172.7,111.1 186.9,135.6 211.5,121.5 197.3,96.9" fill="#6ba3e8" stroke="#222" stroke-width="1"/>
<polygon points="236.0,107.3 264.4,107.3 278.6,82.7 264.4,58.2 236.0,58.2 221.8,82.7" fill="#73c66b" stroke="#222" stroke-width="1"/>
<polygon points="264.4,107.3 236.0,107.3 250.2,131.8" fill="#e8746b" stroke="#222" stroke-width="1"/>
<polygon points="250.2,131.8 236.0,107.3 211.5,121.5 225.6,146.0" fill="#6ba3e8" stroke="#222" stroke-width="1"/>
<polygon points="236.0,107.3 221.8,82.7 197.3,96.9 211.5,121.5" fill="#6ba3e8" stroke="#222" stroke-width="1"/>
<polygon points="278.6,82.7 264.4,107.3 292.7,107.3" fill="#e8746b" stroke="#222" stroke-width="1"/>
<polygon points="278.6,82.7 292.7,107.3 317.3,93.1 303.1,68.6" fill="#6ba3e8" stroke="#222" stroke-width="1"/>
<polygon points="264.4,58.2 278.6,82.7 303.1,68.6 288.9,44.0" fill="#6ba3e8" stroke="#222" stroke-width="1"/>
</svg>