<svg xmlns="http://www.w3.org/2000/svg" width="412" height="183" viewBox="0 0 412 183"><rect width="100%" height="100%" fill="white"/>
<polygon points="101.0,91.6 136.0,152.2 171.0,91.6" fill="#e8746b" stroke="#222" stroke-width="1"/>
<polygon points="101.0,91.6 171.0,91.6 136.0,31.0" fill="#e8746b" stroke="#222" stroke-width="1"/>
<polygon points="101.0,91.6 136.0,31.0 66.0,31.0" fill="#e8746b" stroke="#222" stroke-width="1"/>
<polygon points="101.0,91.6 66.0,31.0 31.0,91.6" fill="#e8746b" stroke="#222" stroke-width="1"/>
<polygon points="171.0,91.6 206.0,152.2 241.0,91.6" fill="#e8746b" stroke="#222" stroke-width="1"/>
<polygon points="171.0,91.6 241.0,91.6 206.0,31.0" fill="#e8746b" stroke="#222" stroke-width="1"/>
<polygon points="171.0,91.6 206.0,31.0 136.0,31.0" fill="#e8746b" stroke="#222" stroke-width="1"/>
<polygon points="171.0,91.6 136.0,31.0 101.0,91.6" fill="#e8746b" stroke="#222" stroke-width="1"/>
<polygon points="241.0,91.6 276.0,152.2 311.0,91.6" fill="#e8746b" stroke="#222" stroke-width="1"/>
<polygon points="241.0,91.6 311.0,91.6 276.0,31.0" fill="#e8746b" stroke="#222" stroke-width="1"/>
<polygon points="241.0,91.6 276.0,31.0 206.0,31.0" fill="#e8746b" stroke="#222" stroke-width="1"/>
<polygon points="241.0,91.6 206.0,31.0 171.0,91.6" fill="#e8746b" stroke="#222" stroke-width="1"/>
<polygon points="311.0,91.6 346.0,152.2 381.0,91.6" fill="#e8746b" stroke="#222" stroke-width="1"/>
<polygon points="311.0,91.6 381.0,91.6 346.0,31.0" fill="#e8746b" stroke="#222" stroke-width="1"/>
<polygon points="311.0,91.6 346.0,31.0 276.0,31.0" fill="#e8746b" stroke="#222" stroke-width="1"/>
<polygon points="311.0,91.6 276.0,31.0 241.0,91.6" fill="#e8746b" stroke="#222" stroke-width="1"/>
<polyline points="66.0,31.0 136.0,31.0 206.0,31.0 276.0,31.0 346.0,31.0" fill="none" stroke="#999" stroke-width="3" stroke-linecap="round"/>
<polyline points="66.0,152.2 101.0,91.6 136.0,152.2 171.0,91.6 206.0,152.2 241.0,91.6 276.0,152.2 311.0,91.6 346.0,152.2 381.0,91.6" fill="none" stroke="#000" stroke-width="3" stroke-linecap="round"/>
</svg>