<svg xmlns="http://www.w3.org/2000/svg" width="377" height="122" viewBox="0 0 377 122"><rect width="100%" height="100%" fill="white"/>
<polygon points="66.0,91.6 136.0,91.6 101.0,31.0" fill="#e8746b" stroke="#222" stroke-width="1"/>
<polygon points="66.0,91.6 101.0,31.0 31.0,31.0" fill="#e8746b" stroke="#222" stroke-width="1"/>
<polygon points="136.0,91.6 206.0,91.6 171.0,31.0" fill="#e8746b" stroke="#222" stroke-width="1"/>
<polygon points="136.0,91.6 171.0,31.0 101.0,31.0" fill="#e8746b" stroke="#222" stroke-width="1"/>
<polygon points="206.0,91.6 276.0,91.6 241.0,31.0" fill="#e8746b" stroke="#222" stroke-width="1"/>
<polygon points="206.0,91.6 241.0,31.0 171.0,31.0" fill="#e8746b" stroke="#222" stroke-width="1"/>
<polygon points="276.0,91.6 346.0,91.6 311.0,31.0" fill="#e8746b" stroke="#222" stroke-width="1"/>
<polygon points="276.0,91.6 311.0,31.0 241.0,31.0" fill="#e8746b" stroke="#222" stroke-width="1"/>
<polyline points="31.0,31.0 101.0,31.0 171.0,31.0 241.0,31.0 311.0,31.0" fill="none" stroke="#999" stroke-width="3" stroke-linecap="round"/>
<polyline points="66.0,91.6 136.0,91.6 206.0,91.6 276.0,91.6 346.0,91.6" fill="none" stroke="#000" stroke-width="3" stroke-linecap="round"/>
</svg>